PathFileType	4	(X/Y/Z)	C:\Users\Basilio\Documents\Thesis Gigler\squatting_fais\c3dfiles\073\SLS_front_pre1\markers_experimental.trc
DataRate	CameraRate	NumFrames	NumMarkers	Units	OrigDataRate	OrigDataStartFrame	OrigNumFrames
200.000000	200.000000	4	61	mm	200.000000	697	1395
Frame#	Time	FHD			LBHD			RBHD			C7			T10			CLAV			LSHO			LUUPA			LMUPA			LDUPA			LLEP			LMEP			LRAD			LUL			LRFIN			RSHO			RUPA1			RMUPA			RDUPA			RLEP			RMEP			RUL			RUFIN			LASI			RASI			USACR			LSACR			RSACR			LTHI1			LTHI2			LTHI3			LTHI4			LLFC			LMFC			LTIB1			LTIB2			LTIB3			LTIB4			LLMAL			LMMAL			LHEE			LMT1			LMT2			LMT5			RTHI			RTHI2			RTHI3			RTHI4			RLFC			RMFC			RTIB1			RTIB2			RTIB3			RTIB4			RLMAL			RMMAL			RHEE			RMT1			RMT2			RMT5			RRAD			
		X1	Y1	Z1	X2	Y2	Z2	X3	Y3	Z3	X4	Y4	Z4	X5	Y5	Z5	X6	Y6	Z6	X7	Y7	Z7	X8	Y8	Z8	X9	Y9	Z9	X10	Y10	Z10	X11	Y11	Z11	X12	Y12	Z12	X13	Y13	Z13	X14	Y14	Z14	X15	Y15	Z15	X16	Y16	Z16	X17	Y17	Z17	X18	Y18	Z18	X19	Y19	Z19	X20	Y20	Z20	X21	Y21	Z21	X22	Y22	Z22	X23	Y23	Z23	X24	Y24	Z24	X25	Y25	Z25	X26	Y26	Z26	X27	Y27	Z27	X28	Y28	Z28	X29	Y29	Z29	X30	Y30	Z30	X31	Y31	Z31	X32	Y32	Z32	X33	Y33	Z33	X34	Y34	Z34	X35	Y35	Z35	X36	Y36	Z36	X37	Y37	Z37	X38	Y38	Z38	X39	Y39	Z39	X40	Y40	Z40	X41	Y41	Z41	X42	Y42	Z42	X43	Y43	Z43	X44	Y44	Z44	X45	Y45	Z45	X46	Y46	Z46	X47	Y47	Z47	X48	Y48	Z48	X49	Y49	Z49	X50	Y50	Z50	X51	Y51	Z51	X52	Y52	Z52	X53	Y53	Z53	X54	Y54	Z54	X55	Y55	Z55	X56	Y56	Z56	X57	Y57	Z57	X58	Y58	Z58	X59	Y59	Z59	X60	Y60	Z60	X61	Y61	Z61	

698	3.485	-138.1463470458985	1386.9951171875	-791.8546142578127	-273.6766967773438	1362.747924804688	-817.093933105469	-297.8065185546876	1345.455078125	-683.6474609375001	-326.7189025878907	1263.213134765625	-748.0007324218751	-516.3428344726564	994.990905761719	-750.8115844726564	-230.7306518554688	1145.35888671875	-748.4318847656251	-246.7686920166016	1211.64453125	-885.3967285156252	-170.056884765625	1141.464965820313	-982.001403808594	-129.5960845947266	1158.967407226563	-957.5039062500002	-107.9856491088867	1112.490112304688	-990.177429199219	-3.25352954864502	1087.224975585938	-991.1893310546877	-7.558013439178469	1032.9521484375	-946.5321044921877	254.4612884521485	1119.919921875	-875.0689697265627	259.9339904785157	1117.698486328125	-949.5269165039065	334.3099060058594	1133.443359375	-864.5105590820315	-234.2308197021485	1203.003662109375	-612.9633789062501	-146.1400451660157	1113.236083984375	-510.000701904297	-107.9903411865235	1134.87255859375	-529.9981079101564	-82.71035003662111	1086.496704101563	-505.0750732421876	10.16203403472901	1071.931396484375	-508.4224548339845	6.834808349609377	1015.866088867188	-568.8217773437501	271.3842773437501	1119.380493164063	-555.7233276367189	348.1428527832032	1135.814697265625	-637.4858398437501	-405.1148986816407	814.318054199219	-883.9985961914065	-389.770233154297	806.2822875976565	-639.4589843750001	-570.9546508789064	862.048278808594	-749.0494995117189	-581.5609130859376	832.000915527344	-777.0530395507815	-581.0646362304689	828.7679443359377	-721.3683471679689	-215.647445678711	637.9835815429689	-945.0682373046877	-132.7876129150391	634.0434570312501	-924.2733154296877	-119.2375183105469	670.8067016601564	-893.1824951171877	-100.9312591552735	585.9110107421876	-914.8002929687502	-50.87143707275392	556.4537353515626	-915.572937011719	-53.09675979614259	547.9486694335939	-775.9246215820315	132.1116485595703	472.0181274414064	-862.3516235351565	127.1720275878907	404.2575683593751	-917.650085449219	158.5183410644532	429.531463623047	-895.7352294921877	218.7449951171876	379.6698608398438	-863.196716308594	271.3898925781251	256.6195068359376	-891.434265136719	258.5892028808594	276.9523620605469	-806.809753417969	257.3368530273438	189.7869110107422	-851.1131591796877	406.2894592285157	352.0812072753907	-801.672790527344	407.3277893066407	355.7647399902344	-840.096618652344	403.9266357421876	315.6569824218751	-895.7407836914065	-320.6797485351563	595.5680541992189	-588.5465698242189	-255.0432586669922	584.8088378906251	-593.4936523437501	-233.7862243652344	609.9992065429689	-597.2736816406251	-217.3075256347657	514.6920776367189	-619.2575073242189	-121.9534759521485	425.2409057617189	-655.2246704101564	-123.9679031372071	437.9528808593751	-785.0970458984377	-161.9390258789063	289.2647399902344	-764.7061767578126	-220.4261932373047	223.178695678711	-701.4180297851564	-205.3053894042969	215.760482788086	-746.2807006835939	-249.2320251464844	193.9159088134766	-778.280944824219	-353.8093261718751	97.55899810791018	-726.8259277343751	-342.0539245605469	128.5844879150391	-813.2775878906252	-432.3756408691407	86.25283050537111	-783.5958251953127	-208.0997467041016	54.12609863281251	-787.1458129882815	-210.3895111083985	51.25480270385744	-746.4117431640626	-256.3956604003907	34.85055541992188	-700.4675292968751	259.3013305664063	1111.049682617188	-631.3397216796876	
699	3.49	-138.3106994628907	1387.066284179688	-791.9537353515627	-273.5673828125001	1362.920654296875	-816.931091308594	-297.6467590332032	1345.4990234375	-683.5621948242189	-326.7213745117188	1263.335205078125	-747.8379516601564	-516.3458251953126	995.1589355468752	-750.8377685546876	-230.7687377929688	1145.455322265625	-748.3394775390626	-246.7881622314454	1211.886108398438	-885.3042602539065	-170.1331939697266	1141.727661132813	-982.0015258789065	-129.6192779541016	1159.22705078125	-957.459655761719	-108.0482482910157	1112.801635742188	-990.282165527344	-3.320317506790162	1087.420532226563	-991.2188110351565	-7.608817100524904	1033.203002929688	-946.6119384765627	254.3469696044922	1120.117309570313	-874.9739990234377	259.7803344726563	1118.019653320313	-949.548034667969	334.1589050292969	1133.657348632813	-864.3479614257815	-234.1243286132813	1203.057373046875	-612.8238525390626	-146.0438995361328	1113.296020507813	-509.9413146972657	-107.9179916381836	1134.94287109375	-529.9497070312501	-82.57310485839845	1086.551391601563	-505.0240783691407	10.29252433776856	1071.985961914063	-508.3853454589845	6.907544136047365	1016.006164550781	-568.8422241210939	271.4470520019532	1119.561401367188	-555.6858520507814	348.1820373535157	1136.062622070313	-637.3433837890626	-405.0386047363282	814.4812622070315	-883.9505004882815	-389.781707763672	806.4146118164065	-639.4621582031251	-570.9185180664064	862.1990356445315	-749.0621337890626	-581.5330200195314	832.108581542969	-777.1047363281252	-581.0986328125001	828.912780761719	-721.4555053710939	-215.5823364257813	638.0551757812501	-945.0803222656252	-132.806640625	634.0372924804689	-924.203308105469	-119.2103042602539	670.8388671875001	-893.1469726562502	-100.9192123413086	585.9404296875001	-914.7807617187502	-50.8366165161133	556.4851684570314	-915.5053710937502	-53.19328689575197	547.8865966796876	-775.893005371094	132.1413726806641	472.0210266113282	-862.354431152344	127.1821212768555	404.2503967285157	-917.6265869140627	158.4794464111328	429.5172119140626	-895.7236328125002	218.735824584961	379.6510009765626	-863.1941528320315	271.3559875488282	256.5813903808594	-891.4922485351565	258.5108947753907	276.9338378906251	-806.7546386718752	257.2700805664063	189.7545776367188	-851.159851074219	406.1918029785157	352.0502624511719	-801.6092529296877	407.3068237304689	355.7509460449219	-840.118835449219	403.8754882812501	315.6342468261719	-895.7193603515627	-320.7942504882813	595.7061767578126	-588.4714965820314	-255.1189270019532	584.9104003906251	-593.3903808593751	-233.8792877197266	610.1300659179689	-597.1403808593751	-217.3861389160157	514.8289794921876	-619.0936279296876	-122.0678176879883	425.3463134765626	-655.0740356445314	-124.1040344238282	437.973602294922	-784.827575683594	-161.9474487304688	289.2660522460938	-764.4123535156251	-220.5652618408204	223.2496948242188	-701.1015625000001	-205.3182373046876	215.8385314941407	-745.9169921875001	-249.2459259033204	193.9289703369141	-778.0601196289065	-353.8524475097657	97.49527740478518	-726.7175292968751	-342.0557861328126	128.6457061767578	-813.1101074218752	-432.3666076660157	86.21623992919923	-783.559997558594	-208.1102600097657	54.16243743896486	-787.0865478515627	-210.4060821533204	51.20855712890626	-746.3807373046876	-256.3638305664063	34.77606201171876	-700.4584960937501	259.3341064453126	1111.40673828125	-631.3013916015626	
700	3.495	-138.3489837646485	1387.198486328125	-791.766784667969	-273.6536865234376	1363.0869140625	-816.7788085937502	-297.6239929199219	1345.617919921875	-683.3464355468751	-326.6704406738282	1263.469848632813	-747.6550292968751	-516.3293457031251	995.3221435546877	-750.8013305664064	-230.750473022461	1145.637451171875	-748.2970581054689	-246.8209533691407	1212.063232421875	-885.2286376953127	-170.1724700927735	1142.032836914063	-982.0228271484377	-129.6477661132813	1159.4921875	-957.3960571289065	-108.139404296875	1113.058471679688	-990.3870239257815	-3.31410050392151	1087.668823242188	-991.2590942382815	-7.66753673553467	1033.384155273438	-946.7298583984377	254.2895812988282	1120.35302734375	-874.872253417969	259.8128967285157	1118.323974609375	-949.4144287109377	334.0206604003907	1133.873901367188	-864.128845214844	-234.0662231445313	1203.188598632813	-612.7186889648439	-145.9640808105469	1113.308349609375	-509.8999633789064	-107.8062438964844	1134.95947265625	-529.9428100585939	-82.49280548095705	1086.608154296875	-505.0017700195314	10.38787269592285	1072.046630859375	-508.4461364746095	7.017282009124758	1016.10107421875	-568.9052124023439	271.4826354980469	1119.705444335938	-555.6247558593751	348.2830505371094	1136.306274414063	-637.3426513671876	-405.0157775878907	814.6707763671877	-883.946960449219	-389.821502685547	806.5645751953127	-639.4502563476564	-570.9435424804689	862.3614501953127	-749.1004028320314	-581.5379028320314	832.2590332031252	-777.1094970703127	-581.0678710937501	829.0931396484377	-721.4804077148439	-215.5124816894532	638.1140136718751	-945.0866699218752	-132.7561798095703	634.1516723632814	-924.1640625000002	-119.1835327148438	670.8530883789064	-893.0701904296877	-100.9302291870117	585.9657592773439	-914.7420654296877	-50.86226272583009	556.4785766601564	-915.5134277343752	-53.24470901489259	547.7408447265626	-775.8801269531252	132.0754699707032	472.033660888672	-862.2988891601565	127.1467895507813	404.2881164550782	-917.6317138671877	158.4599151611328	429.575408935547	-895.638122558594	218.6606597900391	379.6438903808594	-863.183532714844	271.3520507812501	256.5398864746094	-891.438171386719	258.4725952148438	276.9137878417969	-806.718444824219	257.2099304199219	189.7468414306641	-851.1401977539065	406.1837768554689	351.9718017578126	-801.6125488281252	407.2466430664064	355.7117614746094	-840.0925903320315	403.8444213867189	315.6062622070313	-895.7181396484377	-320.8473815917969	595.8570556640626	-588.4006347656251	-255.2530364990235	585.0541992187501	-593.2675781250001	-233.9994659423829	610.2672119140626	-597.0455322265626	-217.5164337158204	514.9605102539064	-618.9066772460939	-122.21240234375	425.425506591797	-654.7790527343751	-124.1959381103516	437.983612060547	-784.5300903320315	-161.8944091796875	289.3421325683594	-764.2387084960939	-220.6461791992188	223.3144989013672	-700.9053344726564	-205.3841247558594	215.9033966064454	-745.6354370117189	-249.2653045654297	193.9808197021485	-777.8280029296877	-353.8618774414063	97.40691375732425	-726.5984497070314	-342.0750427246094	128.6991577148438	-812.9302978515627	-432.3372192382814	86.23061370849611	-783.5081176757815	-208.0997314453126	54.19223785400392	-787.0484619140627	-210.3903198242188	51.20663452148439	-746.2921142578126	-256.3734436035157	34.7216911315918	-700.4165649414064	259.2676391601563	1112.134643554688	-630.5335693359376	
701	3.5	-138.3222198486328	1387.26220703125	-791.6260375976565	-273.5863647460938	1363.25927734375	-816.632995605469	-297.5018310546876	1345.750244140625	-683.1695556640626	-326.6687622070313	1263.645141601563	-747.5818481445314	-516.3751220703126	995.4910888671877	-750.8280029296876	-230.681625366211	1145.751342773438	-748.2674560546876	-246.8236236572266	1212.213623046875	-885.143249511719	-170.1308746337891	1142.376586914063	-981.9873657226565	-129.6709594726563	1159.755004882813	-957.3988037109377	-108.1751480102539	1113.307861328125	-990.424987792969	-3.321314096450807	1087.92919921875	-991.310485839844	-7.698458671569826	1033.583618164063	-946.8056640625002	254.1900939941407	1120.53076171875	-874.7845458984377	259.7680053710938	1118.572387695313	-949.3242797851565	333.7993164062501	1134.046142578125	-863.960144042969	-233.9636535644532	1203.240478515625	-612.6411743164064	-145.8639221191407	1113.340209960938	-509.9413146972657	-107.6982803344727	1135.037475585938	-529.8894653320314	-82.38707733154298	1086.601440429688	-505.0541992187501	10.44073867797852	1072.08544921875	-508.4848022460939	7.141023159027101	1016.223571777344	-568.9850463867189	271.5276184082032	1119.867919921875	-555.5686035156251	348.3299255371094	1136.542358398438	-637.2854003906251	-404.9459838867189	814.7578125000002	-883.9392089843752	-389.8059387207032	806.6875000000002	-639.3634643554689	-570.9392700195314	862.474060058594	-749.1228027343751	-581.4757080078126	832.3887329101565	-777.164001464844	-581.0884399414064	829.2556762695315	-721.5296020507814	-215.5477294921876	638.1684570312501	-945.0061645507815	-132.689437866211	634.1949462890626	-924.1626586914065	-119.1640625	670.8739013671876	-893.0178833007815	-100.9383850097657	585.9989624023439	-914.7135009765627	-50.90799713134767	556.5342407226564	-915.5005493164065	-53.28004837036134	547.6647949218751	-775.7908325195315	132.0675354003907	472.0361633300782	-862.2771606445315	127.1941146850586	404.3361816406251	-917.599792480469	158.4232635498047	429.618621826172	-895.662536621094	218.6487731933594	379.6407470703126	-863.187438964844	271.3196105957032	256.5490112304688	-891.507507324219	258.4127197265626	276.8704223632813	-806.7505493164065	257.1737670898438	189.7173767089844	-851.120300292969	406.1562805175782	351.9351196289063	-801.6816406250002	407.1430664062501	355.7547302246094	-840.085144042969	403.8397216796876	315.6104736328126	-895.749450683594	-320.9624023437501	596.0174560546876	-588.3164672851564	-255.3394470214844	585.2020874023439	-593.0592041015626	-234.0753631591797	610.4293212890626	-596.8547363281251	-217.6212005615235	515.0684204101564	-618.6699829101564	-122.3507308959961	425.5277404785157	-654.5090332031251	-124.3634567260742	438.0265502929689	-784.2235107421877	-161.8949890136719	289.3912048339844	-764.0172729492189	-220.7927551269532	223.2571258544922	-700.5075683593751	-205.4821166992188	215.9577789306641	-745.3386840820314	-249.3410034179688	193.9902648925782	-777.6570434570315	-353.8476257324219	97.31245422363284	-726.4794311523439	-342.0223999023438	128.7322235107422	-812.7460937500002	-432.3770446777345	86.20021057128908	-783.470397949219	-208.0720367431641	54.24145126342775	-786.983093261719	-210.3849334716797	51.1720657348633	-746.2898559570314	-256.4004821777344	34.70751571655274	-700.3750610351564	259.3711547851563	1112.277587890625	-630.4989624023439	
